<?xml version="1.0" standalone="no"?>
<!DOCTYPE svg PUBLIC "-//W3C//DTD SVG 20010904//EN"
 "http://www.w3.org/TR/2001/REC-SVG-20010904/DTD/svg10.dtd">
<svg version="1.0" xmlns="http://www.w3.org/2000/svg"
 width="1200.000000pt" height="1200.000000pt" viewBox="0 0 1200.000000 1200.000000"
 preserveAspectRatio="xMidYMid meet">
<metadata>
Created by potrace 1.14, written by Peter Selinger 2001-2017
</metadata>
<g transform="translate(0.000000,1200.000000) scale(0.100000,-0.100000)"
fill="#000000" stroke="none">
<path d="M5705 11154 c-351 -26 -517 -46 -755 -90 -374 -70 -772 -193 -1102
-340 -186 -83 -636 -313 -774 -395 -1382 -821 -2379 -2233 -2684 -3801 -63
-327 -90 -620 -90 -979 l0 -247 36 -104 c113 -326 290 -557 639 -833 83 -65
204 -161 270 -214 161 -128 381 -350 487 -491 113 -152 182 -267 291 -485 49
-99 114 -223 145 -275 352 -604 922 -1147 1631 -1554 362 -208 824 -406 1072
-460 636 -137 1322 -162 1929 -71 574 86 1145 290 1627 581 594 359 1049 800
1457 1414 173 259 252 402 349 625 40 91 140 228 251 343 113 117 208 200 506
442 341 279 485 417 619 599 77 105 164 279 191 386 64 246 43 848 -45 1307
-128 663 -439 1427 -812 1998 -300 458 -692 898 -1148 1288 -548 468 -1141
800 -1850 1037 -478 160 -903 250 -1415 300 -154 15 -706 28 -825 19z m230
-403 c79 -36 125 -113 125 -212 0 -73 -19 -119 -67 -158 l-34 -28 34 -22 c46
-28 65 -79 77 -205 8 -76 15 -108 31 -129 11 -16 19 -30 17 -32 -1 -1 -46 -4
-98 -6 l-95 -4 -12 70 c-7 39 -16 96 -19 128 -4 40 -13 66 -29 85 -23 27 -24
27 -142 24 -150 -3 -156 -5 -150 -45 3 -18 9 -89 13 -159 l6 -126 -64 -7
c-113 -12 -100 -45 -124 325 -12 179 -25 364 -28 411 l-7 86 148 10 c256 17
372 15 418 -6z m912 -27 c35 -3 69 -12 76 -18 14 -10 185 -842 176 -850 -2 -2
-43 1 -91 7 l-87 11 -11 70 c-18 117 -10 110 -157 129 -71 9 -138 17 -149 17
-14 0 -29 -19 -57 -75 -33 -66 -40 -75 -64 -75 -33 0 -144 18 -150 23 -2 3 88
179 199 391 193 369 204 387 228 382 14 -2 53 -8 87 -12z m863 -192 l75 -28
56 -329 c51 -299 57 -327 68 -300 7 17 49 129 93 250 44 121 84 230 89 242 l8
22 73 -26 c40 -15 74 -27 75 -28 3 -2 -277 -768 -282 -774 -7 -6 -165 52 -165
61 0 9 -97 585 -106 632 -5 21 -9 25 -14 15 -6 -10 -148 -395 -195 -526 -3 -8
-26 -4 -79 15 -42 15 -74 32 -73 37 105 296 283 765 291 765 6 0 45 -13 86
-28z m-3556 -462 c73 -190 124 -310 132 -310 7 0 89 29 181 64 92 36 174 66
182 68 17 4 68 -119 55 -132 -9 -7 -495 -196 -523 -202 -9 -2 -58 113 -162
382 l-148 385 67 27 c37 15 74 27 82 27 11 1 50 -91 134 -309z m4802 -105
c158 -78 250 -228 224 -365 -10 -50 -20 -80 -27 -80 -3 0 -36 19 -73 42 -66
41 -67 43 -63 79 21 155 -176 270 -319 187 -60 -36 -121 -106 -158 -182 -59
-124 -50 -200 34 -282 84 -82 176 -93 266 -32 19 13 35 28 37 33 1 6 -31 32
-72 59 -41 27 -75 51 -75 54 0 4 45 79 66 110 5 8 289 -180 286 -190 -1 -6
-33 -58 -71 -117 -38 -58 -89 -139 -114 -178 l-47 -73 -45 28 c-48 29 -53 42
-30 82 23 41 19 50 -17 39 -156 -44 -344 65 -404 233 -22 63 -20 183 5 253 65
185 214 323 369 343 80 11 145 -2 228 -43z m-5348 -244 c182 -145 332 -265
332 -267 0 -7 -140 -94 -151 -94 -6 0 -39 25 -74 55 l-63 55 -128 -81 c-71
-45 -130 -82 -131 -83 -1 0 7 -37 18 -81 10 -44 19 -84 19 -90 0 -18 -141 -99
-149 -86 -4 6 -49 199 -101 428 -76 340 -90 417 -79 424 8 4 45 28 84 53 39
25 74 41 80 37 5 -5 160 -126 343 -270z m2942 -35 c844 -102 1591 -416 2252
-945 156 -124 421 -380 556 -536 941 -1091 1284 -2546 931 -3950 -123 -488
-372 -1025 -665 -1436 -318 -445 -701 -817 -1149 -1113 -308 -205 -568 -337
-905 -463 -610 -228 -1299 -315 -1958 -247 -1934 198 -3506 1651 -3856 3564
-52 281 -61 400 -61 780 0 370 4 429 51 720 188 1178 888 2257 1896 2923 194
128 274 175 464 270 492 246 1020 395 1589 446 156 15 697 6 855 -13z m-3896
-455 l77 -275 104 -108 c58 -59 105 -112 105 -117 0 -10 -106 -111 -117 -111
-4 -1 -55 49 -113 110 l-105 110 -280 86 c-154 47 -281 87 -282 88 -2 2 31 33
72 70 l76 68 177 -66 c97 -36 180 -66 184 -66 4 0 -21 83 -56 184 l-64 183 66
66 c37 37 69 63 73 59 3 -4 41 -130 83 -281z m7334 -123 l102 -104 -53 -52
-52 -52 -155 155 -155 155 -62 -62 -63 -63 142 -142 143 -143 -50 -49 -50 -49
-144 139 -145 140 -75 -75 -76 -76 165 -165 165 -165 -51 -50 -50 -51 -222
217 c-122 119 -222 220 -222 224 0 5 129 139 286 299 l286 291 117 -109 c64
-60 162 -156 219 -213z m522 -641 c67 -99 130 -198 141 -220 24 -54 24 -139 0
-192 -20 -46 -79 -101 -127 -121 -43 -18 -122 -17 -154 1 -35 20 -36 19 -32
-22 4 -52 -24 -93 -100 -148 -106 -76 -138 -105 -138 -126 0 -35 -19 -20 -71
57 l-51 76 24 25 c12 14 46 41 73 61 83 59 125 103 125 132 0 27 -44 107 -105
191 l-36 48 -135 -89 -134 -90 -47 71 c-38 57 -44 72 -33 79 8 5 161 108 340
229 179 121 328 219 332 218 4 -1 62 -82 128 -180z m-8443 73 c67 -33 105 -60
159 -114 99 -100 119 -145 119 -272 0 -96 -2 -103 -38 -176 -26 -53 -54 -91
-92 -126 -131 -120 -276 -139 -440 -58 -207 103 -317 272 -288 442 17 99 62
181 137 252 89 83 143 103 263 99 85 -3 97 -6 180 -47z m8890 -926 c53 -30 96
-82 133 -159 62 -131 61 -253 -4 -338 -33 -43 -93 -90 -105 -82 -4 2 -20 36
-36 74 l-28 71 26 20 c64 51 53 177 -23 252 -46 46 -88 51 -125 13 -31 -30
-31 -58 -5 -225 11 -69 20 -141 20 -160 0 -131 -101 -226 -241 -224 -139 2
-257 134 -301 337 -27 128 24 248 127 300 l31 15 28 -74 29 -74 -31 -28 c-17
-16 -34 -41 -38 -56 -22 -90 53 -245 127 -261 31 -7 83 15 93 40 10 28 6 115
-9 210 -32 192 -15 279 66 332 86 57 186 63 266 17z m-9572 -13 c52 -23 102
-81 117 -136 l12 -43 29 22 c43 32 105 27 226 -19 85 -32 106 -36 126 -27 13
6 26 8 29 4 2 -4 -12 -46 -30 -93 l-35 -86 -37 7 c-20 4 -79 21 -131 39 -113
39 -135 35 -173 -37 -41 -77 -82 -192 -72 -201 5 -4 70 -32 144 -61 74 -29
137 -55 139 -56 2 -2 -9 -38 -25 -79 -24 -64 -32 -75 -48 -71 -11 3 -184 71
-386 152 l-367 147 89 222 c54 135 101 236 119 258 67 82 168 103 274 58z
m9915 -673 c55 -38 74 -72 74 -131 0 -69 -30 -118 -90 -147 -147 -72 -290 98
-199 237 42 64 151 84 215 41z"/>
<path d="M5621 10623 l-74 -4 6 -82 c4 -45 7 -96 7 -114 l0 -32 88 5 c204 13
242 32 242 124 0 37 -6 56 -24 77 -22 25 -30 28 -97 29 -41 0 -107 -1 -148 -3z"/>
<path d="M6727 10385 c-42 -85 -74 -155 -69 -155 4 0 50 -7 102 -15 52 -8 96
-12 98 -10 3 3 -47 327 -52 332 -1 1 -36 -67 -79 -152z"/>
<path d="M3274 9763 c3 -10 22 -84 42 -165 24 -99 40 -146 48 -141 33 19 166
105 166 108 0 5 -248 215 -255 215 -3 0 -4 -8 -1 -17z"/>
<path d="M6047 9623 c-5 -8 -347 -919 -510 -1360 -23 -62 -44 -113 -48 -113
-4 0 -416 432 -969 1017 -69 72 -126 131 -127 129 -2 -1 22 -568 66 -1596 5
-118 7 -217 5 -219 -2 -2 -139 12 -306 32 -167 19 -304 34 -305 33 -2 -1 14
-138 34 -304 20 -166 34 -304 31 -308 -6 -5 -919 23 -1468 46 -124 5 -253 10
-287 10 l-63 0 468 -442 c685 -648 685 -648 670 -653 -7 -2 -202 -76 -433
-163 -231 -88 -556 -210 -722 -273 -166 -63 -299 -117 -295 -120 4 -3 129 -52
277 -108 652 -248 1161 -444 1168 -451 4 -4 -23 -35 -60 -70 -379 -355 -1063
-1004 -1060 -1006 3 -3 531 12 1537 45 146 5 267 7 269 5 2 -2 -12 -140 -32
-306 -21 -166 -35 -303 -33 -306 3 -2 130 10 283 27 153 17 289 31 303 31 l25
0 -7 -227 c-4 -126 -17 -518 -28 -873 -12 -355 -20 -659 -18 -676 3 -29 26 -6
438 427 239 252 481 507 537 566 56 59 104 106 107 103 3 -3 125 -320 271
-705 147 -384 273 -711 280 -725 l13 -25 12 30 c6 17 51 136 100 265 49 129
161 426 250 660 89 234 169 445 177 468 15 42 16 43 33 25 10 -10 251 -265
535 -568 284 -302 520 -551 524 -553 4 -1 6 26 4 60 -2 35 -10 290 -18 568 -8
278 -17 561 -20 630 -2 69 -7 221 -11 338 l-6 212 23 0 c13 0 151 -14 307 -31
155 -18 285 -30 287 -27 5 4 -43 451 -60 572 l-6 39 243 -7 c134 -4 533 -16
887 -27 354 -11 654 -19 666 -17 19 2 -55 76 -401 403 -233 220 -448 422 -476
449 -172 160 -237 226 -229 231 5 3 321 124 703 269 820 312 752 286 747 291
-4 3 -1006 384 -1351 513 -54 20 -98 39 -98 43 0 4 254 242 564 530 425 395
559 525 544 527 -11 2 -300 -3 -641 -12 -342 -9 -742 -19 -889 -22 -148 -4
-268 -4 -268 0 0 4 16 145 35 313 20 168 35 307 33 308 -2 1 -139 -13 -306
-33 -166 -19 -305 -33 -308 -29 -3 3 -1 136 5 294 38 981 52 1395 49 1443 l-3
56 -275 -289 c-668 -702 -786 -824 -795 -826 -12 -3 7 -51 -300 760 -280 739
-270 715 -278 702z m578 -1668 c296 -781 540 -1428 543 -1439 5 -19 -291 -322
-820 -838 l-268 -260 0 1982 c0 1091 2 1981 4 1979 2 -2 246 -643 541 -1424z
m-655 -2577 c0 -5 -879 -8 -1952 -7 -1510 0 -1947 3 -1929 12 14 7 651 251
1415 543 l1391 531 538 -536 c295 -295 537 -539 537 -543z m4099 -72 c-4 -3
-2604 -992 -2780 -1057 l-76 -28 -439 442 c-241 243 -484 488 -539 545 l-100
102 1969 0 c1083 0 1967 -2 1965 -4z m-4041 -2566 c1 -826 -2 -1429 -7 -1420
-13 21 -1073 2811 -1078 2837 -4 18 90 118 533 563 l539 542 6 -544 c3 -298 7
-1189 7 -1978z"/>
<path d="M10268 8372 c-48 -31 -88 -60 -88 -65 0 -14 132 -197 157 -217 64
-50 172 6 173 91 0 24 -136 249 -150 249 -3 0 -44 -26 -92 -58z"/>
<path d="M1789 8417 c-60 -22 -96 -54 -123 -109 -59 -118 -15 -229 130 -329
56 -38 141 -69 191 -69 90 1 183 80 204 175 10 45 9 60 -6 106 -47 141 -275
271 -396 226z"/>
<path d="M1213 7421 c-25 -25 -122 -247 -112 -255 8 -6 190 -76 198 -76 11 0
90 199 98 245 7 40 -9 71 -50 95 -48 30 -99 26 -134 -9z"/>
<path d="M11155 6911 c-48 -29 -67 -57 -72 -104 -16 -141 174 -205 247 -84 71
115 -62 258 -175 188z m140 -101 c8 -60 -6 -84 -43 -77 -14 3 -38 0 -54 -5
-21 -7 -33 -7 -41 1 -8 8 -2 14 22 22 24 9 31 16 29 33 -2 16 -11 22 -35 24
-59 6 -38 29 35 39 37 6 70 11 74 12 3 0 9 -22 13 -49z"/>
<path d="M11232 6793 c2 -17 10 -29 21 -31 13 -3 17 3 17 27 0 25 -4 31 -21
31 -16 0 -20 -5 -17 -27z"/>
</g>
</svg>
